# xmcd
#
# Track frame offsets:
#	150
#	49476
#	98600
#	153069
#	180019
#
# Disc length: 3282 seconds
#
# Revision: 0
# Processed by: cddbd v1.5.2PL0 Copyright (c) Steve Scherf et al.
# Submitted via: audiograbber 1.83.01
#
DISCID=2b0cd005
DTITLE=Grateful Dead - 94-10-13 Madison Square Garden, New York NY
DYEAR=1900
DGENRE=
TTITLE0=Foolish Heart
TTITLE1=Playing In The Band
TTITLE2=Uncle John's Band
TTITLE3=Jam
TTITLE4=Drums
EXTD=
EXTT0=
EXTT1=
EXTT2=
EXTT3=
EXTT4=
PLAYORDER=
